<?xml version="1.0" encoding="UTF-8" standalone="no"?>
<!-- Created with Inkscape (http://www.inkscape.org/) -->

<svg
   width="48.720371mm"
   height="50.156292mm"
   viewBox="0 0 48.720371 50.156292"
   version="1.1"
   id="svg1"
   xml:space="preserve"
   xmlns="http://www.w3.org/2000/svg"
   xmlns:svg="http://www.w3.org/2000/svg"><defs
     id="defs1"><clipPath
       clipPathUnits="userSpaceOnUse"
       id="clipPath2"><path
         d="M 0,1008 H 612 V 0 H 0 Z"
         transform="translate(-267.4507,-845.80572)"
         id="path2" /></clipPath><clipPath
       clipPathUnits="userSpaceOnUse"
       id="clipPath4"><path
         d="M 0,1008 H 612 V 0 H 0 Z"
         transform="translate(-282.46341,-762.45902)"
         id="path4" /></clipPath><clipPath
       clipPathUnits="userSpaceOnUse"
       id="clipPath6"><path
         d="M 0,1008 H 612 V 0 H 0 Z"
         transform="translate(-339.20701,-712.87302)"
         id="path6" /></clipPath><clipPath
       clipPathUnits="userSpaceOnUse"
       id="clipPath8"><path
         d="M 0,1008 H 612 V 0 H 0 Z"
         transform="translate(-339.20121,-738.34622)"
         id="path8" /></clipPath><clipPath
       clipPathUnits="userSpaceOnUse"
       id="clipPath10"><path
         d="M 0,1008 H 612 V 0 H 0 Z"
         transform="translate(-343.46391,-741.35942)"
         id="path10" /></clipPath><clipPath
       clipPathUnits="userSpaceOnUse"
       id="clipPath12"><path
         d="M 0,1008 H 612 V 0 H 0 Z"
         transform="translate(-338.36041,-721.52202)"
         id="path12" /></clipPath><clipPath
       clipPathUnits="userSpaceOnUse"
       id="clipPath14"><path
         d="M 0,1008 H 612 V 0 H 0 Z"
         transform="translate(-338.92871,-722.21872)"
         id="path14" /></clipPath><clipPath
       clipPathUnits="userSpaceOnUse"
       id="clipPath16"><path
         d="M 0,1008 H 612 V 0 H 0 Z"
         transform="translate(-356.54981,-742.73782)"
         id="path16" /></clipPath><clipPath
       clipPathUnits="userSpaceOnUse"
       id="clipPath18"><path
         d="M 0,1008 H 612 V 0 H 0 Z"
         transform="translate(-352.16311,-737.61382)"
         id="path18" /></clipPath><clipPath
       clipPathUnits="userSpaceOnUse"
       id="clipPath20"><path
         d="M 0,1008 H 612 V 0 H 0 Z"
         transform="translate(-346.77831,-731.58892)"
         id="path20" /></clipPath><clipPath
       clipPathUnits="userSpaceOnUse"
       id="clipPath22"><path
         d="M 0,1008 H 612 V 0 H 0 Z"
         transform="translate(-348.86911,-738.12502)"
         id="path22" /></clipPath><clipPath
       clipPathUnits="userSpaceOnUse"
       id="clipPath24"><path
         d="M 0,1008 H 612 V 0 H 0 Z"
         transform="translate(-352.68951,-742.42482)"
         id="path24" /></clipPath><clipPath
       clipPathUnits="userSpaceOnUse"
       id="clipPath26"><path
         d="M 0,1008 H 612 V 0 H 0 Z"
         transform="translate(-358.44141,-752.13622)"
         id="path26" /></clipPath><clipPath
       clipPathUnits="userSpaceOnUse"
       id="clipPath45"><path
         d="M 0,1008 H 612 V 0 H 0 Z"
         transform="translate(-291.94141,-764.86132)"
         id="path45" /></clipPath><clipPath
       clipPathUnits="userSpaceOnUse"
       id="clipPath47"><path
         d="M 0,1008 H 612 V 0 H 0 Z"
         transform="translate(-299.2168,-738.82422)"
         id="path47" /></clipPath><clipPath
       clipPathUnits="userSpaceOnUse"
       id="clipPath49"><path
         d="M 0,1008 H 612 V 0 H 0 Z"
         transform="translate(-265.60791,-729.67972)"
         id="path49" /></clipPath><clipPath
       clipPathUnits="userSpaceOnUse"
       id="clipPath51"><path
         d="M 0,1008 H 612 V 0 H 0 Z"
         transform="translate(-287.9326,-741.74952)"
         id="path51" /></clipPath><clipPath
       clipPathUnits="userSpaceOnUse"
       id="clipPath53"><path
         d="M 0,1008 H 612 V 0 H 0 Z"
         transform="translate(-244.82811,-712.10942)"
         id="path53" /></clipPath></defs><g
     id="layer-MC0"
     transform="matrix(0.26458333,0,0,0.26458334,142.66846,11.233201)"><path
       id="path1"
       d="m 0,0 c 0,0 2.509,1.034 6.9,2.843 1.132,0.373 2.385,0.787 3.749,1.237 1.366,0.453 2.836,0.97 4.461,1.317 1.617,0.376 3.322,0.862 5.152,1.217 1.844,0.293 3.782,0.601 5.805,0.922 2.044,0.137 4.174,0.352 6.384,0.443 1.108,-0.013 2.234,-0.025 3.377,-0.038 0.572,-0.007 1.149,-0.013 1.73,-0.02 0.581,0.002 1.161,-0.098 1.748,-0.143 1.173,-0.117 2.362,-0.236 3.568,-0.356 0.605,-0.041 1.202,-0.165 1.802,-0.283 0.602,-0.116 1.207,-0.233 1.816,-0.35 2.458,-0.377 4.872,-1.166 7.356,-1.863 4.871,-1.676 9.789,-3.839 14.368,-6.768 4.562,-2.942 8.854,-6.448 12.722,-10.39 3.804,-4.002 7.173,-8.403 10.058,-13.016 2.883,-4.62 5.095,-9.526 6.918,-14.377 0.398,-1.234 0.794,-2.458 1.186,-3.669 0.389,-1.213 0.644,-2.452 0.967,-3.657 0.689,-2.401 0.991,-4.836 1.426,-7.168 0.551,-4.717 0.9,-9.209 0.604,-13.348 -0.014,-2.072 -0.318,-4.039 -0.542,-5.908 -0.058,-0.467 -0.116,-0.928 -0.173,-1.382 -0.09,-0.45 -0.178,-0.894 -0.265,-1.332 -0.175,-0.873 -0.344,-1.722 -0.509,-2.544 -0.758,-3.263 -1.576,-6.071 -2.515,-8.282 -0.806,-2.258 -1.677,-3.93 -2.255,-5.071 -0.573,-1.141 -0.88,-1.749 -0.88,-1.749 l -0.269,0.131 c 0,0 0.232,0.637 0.669,1.831 0.223,0.593 0.496,1.324 0.817,2.183 0.36,0.843 0.571,1.888 0.917,3.011 0.315,1.136 0.722,2.372 0.959,3.774 0.147,0.692 0.3,1.411 0.459,2.159 0.169,0.743 0.327,1.517 0.411,2.332 0.482,3.228 0.815,6.899 0.777,10.902 -0.013,1 0.002,2.021 -0.031,3.06 -0.08,1.038 -0.16,2.094 -0.242,3.169 -0.037,0.537 -0.074,1.079 -0.111,1.625 -0.074,0.542 -0.15,1.089 -0.227,1.641 -0.151,1.101 -0.305,2.218 -0.462,3.352 -0.881,4.488 -1.923,9.209 -3.657,13.896 -1.684,4.69 -3.755,9.436 -6.397,13.971 -2.664,4.517 -5.803,8.851 -9.378,12.818 -3.66,3.886 -7.74,7.363 -12.099,10.305 -4.375,2.929 -9.097,5.121 -13.801,6.853 -2.399,0.724 -4.734,1.545 -7.121,1.96 C 45.581,5.365 44.993,5.491 44.409,5.616 43.824,5.745 43.244,5.878 42.654,5.93 41.481,6.078 40.322,6.225 39.178,6.37 38.605,6.43 38.04,6.545 37.471,6.558 36.902,6.58 36.338,6.602 35.777,6.624 34.656,6.667 33.552,6.71 32.466,6.753 30.293,6.724 28.193,6.57 26.174,6.491 24.169,6.229 22.248,5.979 20.42,5.74 18.602,5.439 16.903,5.004 15.29,4.676 13.666,4.377 12.201,3.905 10.838,3.495 9.472,3.086 8.218,2.711 7.085,2.372 2.647,0.685 0.11,-0.278 0.11,-0.278 Z"
       style="fill:#18af80;fill-opacity:1;fill-rule:nonzero;stroke:none"
       transform="matrix(1.3333333,0,0,-1.3333333,-494.7582,-31.81752)"
       clip-path="url(#clipPath2)" /><path
       id="path3"
       d="m 0,0 c -0.899,-0.747 -1.864,-1.406 -2.87,-2.001 l -0.501,-1.144 -0.039,-0.096 -0.056,-0.042 -2.613,-1.908 1.99,2.409 0.063,0.136 c -0.534,-0.277 -1.077,-0.54 -1.645,-0.785 -0.799,-0.32 -1.605,-0.553 -2.423,-0.753 l -0.55,-1.249 -0.038,-0.097 -0.049,-0.04 -2.302,-1.61 1.673,2.101 0.29,0.669 c -0.945,-0.201 -1.899,-0.339 -2.835,-0.46 l -0.865,-1.06 -0.087,-0.112 -0.088,-0.018 -1.962,-0.275 1.547,0.944 0.31,0.39 c -0.225,-0.027 -0.442,-0.053 -0.674,-0.08 -0.513,-0.044 -1.121,-0.114 -1.692,-0.056 -1.131,0.125 -2.178,0.436 -3.193,0.844 1.091,-0.054 2.168,-0.155 3.202,-0.049 0.512,0.037 0.968,0.162 1.506,0.302 l 1.576,0.377 c 0.271,0.067 0.544,0.125 0.815,0.192 l -0.47,0.67 0.088,-0.088 -1.225,1.385 1.7,-0.738 0.04,-0.016 0.048,-0.081 0.659,-0.932 c 1.394,0.335 2.753,0.701 4.041,1.194 l -3.313,2.599 4.087,-2.286 c 0.806,0.344 1.621,0.744 2.403,1.169 0.934,0.483 1.828,1.036 2.712,1.607 0.384,0.243 0.749,0.505 1.124,0.763 L -2.986,4.439 0.999,2.231 C 2.12,3.069 3.203,3.985 4.195,5.044 3.243,3.063 1.703,1.404 0,0 m 18.925,29.178 c -1.379,4.881 -3.687,9.598 -6.836,13.58 -3.02,3.811 -7.184,7.157 -6.899,12.55 0.124,2.223 -0.053,3.184 -0.053,3.184 0,0 -0.622,0.331 -7.639,-8.206 -6.136,-7.455 -7.102,-18.117 -7.102,-18.117 l 7.531,-2.479 -0.27,0.712 c -4.037,2.601 -3.136,7.382 -3.136,7.382 l 3.195,-6.025 -0.004,7.845 -1.172,3.598 0.959,4.573 0.788,-5.431 2.718,9.467 3.094,4.505 L 2.926,53.979 1.2,49.76 l 2.277,1.055 -2.603,-3.794 -1.025,-9.412 4.695,3.23 -4.744,-5.635 0.169,-6.746 1.73,-0.665 6.763,5.816 -5.074,-6.97 c 8.8,-6.919 5.866,-17.976 5.866,-17.976 0,0 0.399,6.822 -2.387,10.525 -6.337,8.426 -18.319,10.774 -28.209,11.603 -2.714,0.23 -5.557,-0.166 -7.977,1.279 -0.468,0.284 -3.269,2.095 -3.276,2.849 -1.52,-8.992 -0.258,-18.413 4.749,-26.162 1.304,-2.016 2.82,-3.894 4.537,-5.578 0.575,-0.557 3.616,-3.96 4.43,-3.432 0.03,0.024 7.931,5.186 7.931,5.186 l -3.811,0.155 -3.781,1.745 3.974,-0.996 4.134,0.48 -8.62,5.564 c -4.632,-0.476 -7.592,2.07 -7.851,2.316 0.234,-0.078 3.091,-1.052 4.079,-1.269 1.462,-0.322 3.249,-0.096 3.249,-0.096 0,0 -5.256,5.323 -7.391,6.386 -3.966,1.968 -4.448,3.736 -4.448,3.736 l 4.425,-3.046 c -0.099,0.199 -1.751,3.376 -2.888,5.002 -1.13,1.617 -2.194,7.077 -2.269,7.47 l 2.451,-5.559 0.53,3.358 0.234,-4.523 c 0,0 5.58,-8.016 6.511,-7.084 0.929,0.931 1.107,4.959 1.107,4.959 l 0.1,-7.017 6.318,-4.167 1.639,9.168 0.611,-11.152 5.919,-3.104 5.692,1.017 0.675,8.252 0.279,-8.179 C 0.842,8.431 1.743,8.207 2.572,7.804 1.898,7.838 -6.413,8.032 -13.389,0.955 c -5.045,-5.111 -8.347,-4.508 -8.347,-4.508 -0.552,-1.113 9.353,-8.461 17.329,-6.965 1.361,0.254 5.481,1.408 7.912,3.87 4.162,4.21 -0.237,9.624 5.895,9.079 -1.17,5.212 5.021,3.546 8.104,9.158 2.965,5.403 3.08,11.741 1.421,17.589"
       style="fill:#8acf25;fill-opacity:1;fill-rule:nonzero;stroke:none"
       transform="matrix(1.3333333,0,0,-1.3333333,-474.74126,79.31142)"
       clip-path="url(#clipPath4)" /><path
       id="path5"
       d="M 0,0 C 0,0 -0.09,0.148 -0.241,0.439 -0.384,0.733 -0.588,1.17 -0.783,1.752 -0.97,2.336 -1.169,3.058 -1.297,3.908 -1.422,4.756 -1.51,5.735 -1.41,6.795 c 0.021,0.265 0.043,0.536 0.065,0.812 0.034,0.275 0.1,0.55 0.15,0.833 0.054,0.283 0.11,0.57 0.167,0.861 0.088,0.284 0.176,0.572 0.266,0.864 0.095,0.291 0.176,0.591 0.284,0.886 0.126,0.287 0.254,0.577 0.383,0.871 0.132,0.294 0.256,0.596 0.404,0.888 0.167,0.281 0.337,0.565 0.507,0.851 0.171,0.287 0.344,0.575 0.518,0.866 0.188,0.281 0.404,0.544 0.607,0.82 0.42,0.539 0.804,1.126 1.308,1.609 0.482,0.502 0.953,1.027 1.455,1.52 l 1.593,1.393 c 1.034,0.911 2.164,1.761 3.149,2.679 0.493,0.458 0.983,0.913 1.467,1.362 0.459,0.478 0.912,0.95 1.358,1.414 0.854,0.961 1.671,1.901 2.357,2.86 0.698,0.949 1.285,1.899 1.758,2.812 0.476,0.911 0.837,1.783 1.117,2.572 0.262,0.795 0.431,1.509 0.516,2.106 0.081,0.597 0.122,1.073 0.11,1.398 0,0.325 -0.028,0.498 -0.028,0.498 0,0 0.186,-0.685 0.111,-1.916 C 18.175,35.04 18.062,34.3 17.86,33.464 17.643,32.635 17.347,31.706 16.892,30.75 16.452,29.788 15.897,28.78 15.229,27.771 14.573,26.75 13.789,25.738 12.929,24.737 12.483,24.25 12.031,23.755 11.572,23.253 11.081,22.781 10.584,22.304 10.082,21.822 9.071,20.867 7.98,20.032 6.934,19.099 L 5.379,17.763 C 4.891,17.29 4.435,16.789 3.965,16.309 3.476,15.844 3.102,15.293 2.682,14.788 2.48,14.529 2.267,14.28 2.079,14.017 1.907,13.744 1.735,13.473 1.565,13.204 1.396,12.935 1.227,12.667 1.059,12.403 0.919,12.124 0.781,11.848 0.645,11.574 0.507,11.3 0.371,11.029 0.237,10.761 0.12,10.486 0.03,10.205 -0.073,9.932 -0.174,9.658 -0.272,9.387 -0.37,9.121 -0.437,8.845 -0.503,8.574 -0.568,8.307 -0.629,8.039 -0.706,7.778 -0.752,7.517 -0.786,7.254 -0.819,6.995 -0.853,6.742 -0.987,5.729 -0.98,4.784 -0.93,3.951 -0.872,3.116 -0.734,2.395 -0.597,1.807 -0.445,1.222 -0.306,0.767 -0.191,0.461 -0.074,0.159 0,0 0,0"
       style="fill:#18af80;fill-opacity:1;fill-rule:nonzero;stroke:none"
       transform="matrix(1.3333333,0,0,-1.3333333,-399.08313,145.42608)"
       clip-path="url(#clipPath6)" /><path
       id="path7"
       d="m 0,0 c 1.681,-5.415 1.065,-9.341 1.065,-9.341 0,0 -0.357,3.806 -4.989,7.929 -5.045,4.485 -4.711,8.031 -4.711,8.031 0,0 7.026,-1.437 8.635,-6.619"
       style="fill:#18af80;fill-opacity:1;fill-rule:nonzero;stroke:none"
       transform="matrix(1.3333333,0,0,-1.3333333,-399.09086,111.46181)"
       clip-path="url(#clipPath8)" /><path
       id="path9"
       d="m 0,0 c 1.118,-3.513 -0.111,-9.341 -0.111,-9.341 0,0 0.561,5.737 -2.59,8.364 -3.43,2.859 -1.482,6.494 -1.482,6.494 0,0 3.113,-2.165 4.183,-5.517"
       style="fill:#18af80;fill-opacity:1;fill-rule:nonzero;stroke:none"
       transform="matrix(1.3333333,0,0,-1.3333333,-393.40726,107.44421)"
       clip-path="url(#clipPath10)" /><path
       id="path11"
       d="m 0,0 c 0,0 -0.308,4.282 -2.502,7.705 -2.189,3.425 -4.057,4.159 -4.057,4.159 0,0 -1.073,-6.339 0.994,-8.148 C -3.499,1.911 0,0 0,0"
       style="fill:#18af80;fill-opacity:1;fill-rule:nonzero;stroke:none"
       transform="matrix(1.3333333,0,0,-1.3333333,-400.21193,133.89408)"
       clip-path="url(#clipPath12)" /><path
       id="path13"
       d="m 0,0 c 0,0 2.104,-1.054 4.614,-0.827 2.519,0.225 3.652,1.041 3.652,1.041 0,0 -2.456,2.398 -4.171,1.779 C 2.378,1.376 0,0 0,0"
       style="fill:#18af80;fill-opacity:1;fill-rule:nonzero;stroke:none"
       transform="matrix(1.3333333,0,0,-1.3333333,-399.4542,132.96514)"
       clip-path="url(#clipPath14)" /><path
       id="path15"
       d="m 0,0 c 0,0 4.047,-0.643 8.371,1.241 4.324,1.885 7.289,5.585 7.289,5.585 0,0 -4.049,0.647 -8.374,-1.239 C 2.962,3.701 0,0 0,0"
       style="fill:#18af80;fill-opacity:1;fill-rule:nonzero;stroke:none"
       transform="matrix(1.3333333,0,0,-1.3333333,-375.9594,105.60635)"
       clip-path="url(#clipPath16)" /><path
       id="path17"
       d="m 0,0 c 0,0 2.646,-1.362 5.939,-0.906 3.298,0.452 5.992,2.536 5.992,2.536 0,0 -2.642,1.359 -5.935,0.907 C 2.7,2.088 0,0 0,0"
       style="fill:#18af80;fill-opacity:1;fill-rule:nonzero;stroke:none"
       transform="matrix(1.3333333,0,0,-1.3333333,-381.80833,112.43834)"
       clip-path="url(#clipPath18)" /><path
       id="path19"
       d="m 0,0 c 0,0 2.832,-1.344 6.301,-0.774 3.472,0.571 6.273,2.842 6.273,2.842 0,0 -2.831,1.346 -6.302,0.773 C 2.8,2.271 0,0 0,0"
       style="fill:#18af80;fill-opacity:1;fill-rule:nonzero;stroke:none"
       transform="matrix(1.3333333,0,0,-1.3333333,-388.98806,120.47154)"
       clip-path="url(#clipPath20)" /><path
       id="path21"
       d="m 0,0 c 0,0 1.561,4.477 0.863,9.139 -0.697,4.665 -3.393,7.749 -3.393,7.749 0,0 -1.56,-4.471 -0.866,-9.137 C -2.697,3.091 0,0 0,0"
       style="fill:#18af80;fill-opacity:1;fill-rule:nonzero;stroke:none"
       transform="matrix(1.3333333,0,0,-1.3333333,-386.20033,111.75674)"
       clip-path="url(#clipPath22)" /><path
       id="path23"
       d="m 0,0 c 0,0 1.665,3.072 1.769,6.625 0.104,3.552 -1.391,6.244 -1.391,6.244 0,0 -1.664,-3.075 -1.765,-6.624 C -1.49,2.691 0,0 0,0"
       style="fill:#18af80;fill-opacity:1;fill-rule:nonzero;stroke:none"
       transform="matrix(1.3333333,0,0,-1.3333333,-381.10646,106.02369)"
       clip-path="url(#clipPath24)" /><path
       id="path25"
       d="m 0,0 c 0,0 1.657,3.073 1.764,6.623 0.104,3.558 -1.392,6.246 -1.392,6.246 0,0 -1.662,-3.073 -1.768,-6.624 C -1.499,2.69 0,0 0,0"
       style="fill:#18af80;fill-opacity:1;fill-rule:nonzero;stroke:none"
       transform="matrix(1.3333333,0,0,-1.3333333,-373.43726,93.07515)"
       clip-path="url(#clipPath26)" /><path
       id="path27"
       d="m -530.79272,25.11091 c 0.26172,0.26172 1.13672,0.68751 2.625,1.28126 0.86719,0.33594 1.55469,0.71094 2.07812,1.125 0.51953,0.41797 0.71875,0.79688 0.59375,1.14063 -0.125,0.38671 -0.35937,0.67187 -0.70312,0.85937 -0.33594,0.17969 -0.73047,0.1875 -1.1875,0.0312 -0.40625,-0.13281 -0.9375,-0.42187 -1.59375,-0.85937 -1.46875,-0.94532 -4.6875,-2.55079 -9.65625,-4.81251 -0.20703,-0.10157 -0.36719,-0.29688 -0.48438,-0.57813 -0.11328,-0.28906 -0.1289,-0.55078 -0.0469,-0.78125 0.28121,-0.82033 0.92969,-1.0625 1.9375,-0.71875 0.46094,0.15625 1.14844,0.5 2.0625,1.03125 1.0625,0.61719 1.85547,1.01172 2.375,1.1875 0.0859,-0.0312 0.19531,-0.24219 0.32812,-0.64062 0.30469,-0.86328 0.65625,-2.10938 1.0625,-3.73438 0.40625,-1.625 0.52735,-2.53125 0.35938,-2.71875 -0.17578,-0.19531 -0.75391,-0.53516 -1.73438,-1.01562 -0.98828,-0.48829 -2.0664,-0.9375 -3.23437,-1.34375 -0.17578,-0.0625 -0.33594,-0.26563 -0.48438,-0.60938 -0.15625,-0.35156 -0.17968,-0.67578 -0.0781,-0.96875 0.11713,-0.33205 0.32422,-0.57031 0.625,-0.71875 0.29297,-0.15625 0.59375,-0.17969 0.90625,-0.0781 0.46095,0.16791 1.26172,0.57422 2.40625,1.21874 1.26172,0.74219 2.92969,1.56251 5,2.46876 2.0625,0.90625 3.44531,1.48046 4.15625,1.71874 0.33205,0.11714 0.60156,0.38672 0.8125,0.81251 0.21875,0.42968 0.28515,0.77343 0.20312,1.03125 -0.0937,0.26171 -0.28906,0.49218 -0.57812,0.6875 -0.29297,0.1875 -0.60156,0.22656 -0.92188,0.10937 -0.21093,-0.0703 -0.89843,-0.40625 -2.0625,-1 -1.15625,-0.58203 -1.96093,-0.95312 -2.42187,-1.10937 -0.28906,-0.10157 -0.45703,-0.0937 -0.5,0.0312 -0.0937,0.28125 -0.25781,0.85937 -0.5,1.73437 -0.21875,0.88672 -0.37891,1.48438 -0.48438,1.79688 -0.082,0.23046 -0.2539,0.83984 -0.51562,1.82812 -0.26953,0.99219 -0.38281,1.52344 -0.34375,1.59375 z m 0,0"
       style="fill:#6a431e;fill-opacity:1;fill-rule:nonzero;stroke:none;stroke-width:1.33333"
       aria-label="H" /><path
       id="path28"
       d="m -531.17944,3.8843395 c 0.40625,0.23047 0.66406,0.60938 0.76562,1.14063 0.10547,0.53125 0.0859,0.93359 -0.0625,1.20312 -0.19531,0.34376 -0.50781,0.57422 -0.9375,0.6875 -0.42578,0.10547 -0.78125,0.0781 -1.0625,-0.0781 -0.41406,-0.22656 -0.67578,-0.53906 -0.78125,-0.9375 -0.11328,-0.40625 -0.0351,-0.85156 0.23438,-1.34375 0.21088,-0.38284 0.49219,-0.63281 0.84375,-0.75 0.35547,-0.11328 0.6875,-0.0859 1,0.0781 z m 4.73437,8.0312505 h 0.0156 c -0.9375,-0.75 -1.47656,-1.16406 -1.625,-1.25 -0.42578,-0.23828 -0.72656,-0.53125 -0.90625,-0.8750005 -0.1875,-0.34375 -0.1875,-0.67578 0,-1 0.21094,-0.38281 0.46875,-0.63281 0.78125,-0.75 0.30469,-0.125 0.57031,-0.11718 0.79687,0.0156 0.23047,0.125 0.63672,0.49218 1.21875,1.09375 l 0.15625,0.15625 c 0.92969,0.9179705 1.72657,1.6054705 2.39063,2.0625005 0.65625,0.44922 1.19922,0.79297 1.625,1.03125 0.34375,0.1875 0.83594,0.38281 1.48437,0.57812 0.11329,0.043 0.20313,0.0781 0.26563,0.10938 0.13281,0.0742 0.24219,0.29687 0.32812,0.67187 0.0937,0.375 0.0625,0.71094 -0.0937,1 -0.41796,0.74219 -1.19921,0.79297 -2.34375,0.15625 -0.96875,-0.53906 -2.07031,-1.32812 -3.3125,-2.35937 -0.28125,-0.22656 -0.53906,-0.44141 -0.78125,-0.64063 z m 0,0"
       style="fill:#6a431e;fill-opacity:1;fill-rule:nonzero;stroke:none;stroke-width:1.33333"
       aria-label="i" /><path
       id="path29"
       d="m -516.11303,1.9546595 c 0.55078,0.39843 0.86719,1.33594 0.95312,2.8125 0.0937,1.48047 -0.28125,2.79688 -1.125,3.95313 -0.65625,0.88671 -1.45312,1.3828105 -2.39062,1.4843705 -0.92578,0.0937 -1.88281,-0.2187505 -2.875,-0.9375005 -1.47656,-1.08203 -2.48438,-2.61328 -3.01563,-4.59375 -0.53125,-1.97656 -0.36328,-3.5625 0.5,-4.75 0.4297,-0.59375 0.96094,-0.92578 1.59375,-1 0.63672,-0.082 1.21485,0.0625 1.73438,0.4375 0.91797,0.66797 1.46875,1.74219 1.65625,3.21875 0.1875,1.48047 -0.0625,3.02734 -0.75,4.64063 -0.082,0.17968 -0.0508,0.32421 0.0937,0.4375 0.25,0.17968 0.57031,0.24218 0.96875,0.1875 0.39453,-0.0625 0.72656,-0.28125 1,-0.65625 0.78125,-1.05079 1.0039,-2.49219 0.67187,-4.32813 -0.0625,-0.35156 -0.0234,-0.62891 0.125,-0.82812 0.22657,-0.3125 0.51563,-0.33594 0.85938,-0.0781 z m -5.25,4.28125 c 0.42969,-0.94531 0.60547,-1.9375 0.53125,-2.96875 -0.082,-1.03125 -0.34375,-1.70703 -0.78125,-2.03125 -0.17578,-0.125 -0.35938,-0.17969 -0.54688,-0.17187 -0.1875,0 -0.33593,0.0781 -0.45312,0.23437 -0.33203,0.46094 -0.36328,1.21484 -0.0937,2.26563 0.26172,1.04296 0.71094,1.93359 1.34375,2.67187 z m 0,0"
       style="fill:#6a431e;fill-opacity:1;fill-rule:nonzero;stroke:none;stroke-width:1.33333"
       aria-label="e" /><path
       id="path30"
       d="m -514.35522,-2.0062805 -0.0937,-0.34375 c -0.5625,-1.66407 -0.86719,-3.17188 -0.92188,-4.51563 -0.0625,-1.34375 0.21485,-2.31641 0.82813,-2.92187 0.46094,-0.4687495 0.96484,-0.7187495 1.51562,-0.7499995 0.5625,-0.0391 1.01953,0.11718 1.375,0.46875 0.22657,0.2187395 0.36719,0.4609295 0.42188,0.7187495 0.0625,0.25 0,0.46484 -0.1875,0.64062 -0.29297,0.29297 -0.66797,0.4375 -1.125,0.4375 -0.33594,0.0117 -0.54688,0.0625 -0.64063,0.15625 -0.34375,0.35547 -0.3789,1.47656 -0.10937,3.35938 0.26953,1.88671 0.99219,3.57422 2.17187,5.0625 0.33203,0.4375 0.48828,0.82421 0.46875,1.15625 -0.0234,0.33593 -0.17968,0.64843 -0.46875,0.9375 -0.32422,0.33593 -0.73437,0.38671 -1.23437,0.15625 -0.49219,-0.22657 -1.14063,-0.75391 -1.95313,-1.57813 -0.34375,-0.33203 -0.78906,-0.79688 -1.34375,-1.39062 -0.53125,-0.55079 -1.13281,-1.25782 -1.8125,-2.125 -0.1875,-0.22657 -0.33593,-0.39844 -0.45312,-0.51563 -0.40625,-0.5 -0.66016,-0.85937 -0.76563,-1.07812 -0.11328,-0.21875 -0.14843,-0.49219 -0.10937,-0.82813 0.043,-0.34375 0.18359,-0.63281 0.42187,-0.875 0.25,-0.25 0.51172,-0.36719 0.78125,-0.35937 0.26172,0.0117 0.48047,0.10546 0.65625,0.28125 0.21875,0.21093 0.5625,0.76171 1.03125,1.65625 0.16797,0.3125 0.39063,0.65234 0.67188,1.01562 z m 0,0"
       style="fill:#6a431e;fill-opacity:1;fill-rule:nonzero;stroke:none;stroke-width:1.33333"
       aria-label="r" /><path
       id="path31"
       d="m -510.11303,-12.25238 c -1.66407,-3.39453 -2.58594,-5.45312 -2.76563,-6.17187 -0.1875,-0.72656 0,-1.29688 0.5625,-1.70313 0.4297,-0.31248 0.91797,-0.082 1.46875,0.6875 0.375,0.52344 0.94531,1.76172 1.70313,3.71875 0.35546,0.98047 0.96484,2.41406 1.82812,4.29688 0.043,-1.34375 0.25781,-2.5625 0.64063,-3.65625 0.375,-1.10157 0.86718,-1.875 1.48437,-2.3125 0.48828,-0.35156 1.05078,-0.4375 1.6875,-0.25 0.64453,0.1875 1.17578,0.57031 1.59375,1.14062 1.17578,1.63672 1.64844,3.6211 1.42188,5.95313 -0.21875,2.3242195 -1.03125,3.9843695 -2.4375,4.9843695 -0.42969,0.3125 -0.90625,0.48438 -1.4375,0.51563 -0.52344,0.0312 -0.9336,-0.11328 -1.23438,-0.4375 -0.17969,-0.17578 -0.32031,-0.27344 -0.42187,-0.29688 -0.0937,-0.0195 -0.19922,-0.0469 -0.3125,-0.0781 -0.26954,-0.0391 -0.50782,-0.20703 -0.71875,-0.5 -0.23829,-0.32032 -0.64454,-1.05469 -1.21875,-2.20313 z m 5,4.9687495 c 0.47656,0.21094 0.85937,0.21485 1.14062,0.0156 0.48828,-0.35156 0.875,-0.97657 1.15625,-1.875 0.28125,-0.8945295 0.34375,-1.9140695 0.1875,-3.0624995 -0.15625,-1.15625 -0.43359,-2.00782 -0.82812,-2.5625 -0.375,-0.51953 -0.64063,-0.72266 -0.79688,-0.60938 -0.84375,0.61719 -1.35156,1.91406 -1.51562,3.89063 -0.15625,1.9804695 0.0625,3.3828095 0.65625,4.2031195 z m 0,0"
       style="fill:#6a431e;fill-opacity:1;fill-rule:nonzero;stroke:none;stroke-width:1.33333"
       aria-label="b" /><path
       id="path32"
       d="m -491.76928,-16.24065 c -0.52344,2.79297 -1.4961,4.54297 -2.92188,5.25 -0.52344,0.26172 -1.07812,0.28125 -1.67187,0.0625 -0.58594,-0.22656 -1.03516,-0.66406 -1.35938,-1.3125 -0.76953,-1.55078 -0.90625,-3.53906 -0.40625,-5.96875 0.5,-2.42578 1.44531,-3.98828 2.84375,-4.6875 0.70703,-0.35156 1.35938,-0.22266 1.95313,0.39062 0.66406,-0.34374 1.125,-0.25781 1.375,0.25 0.125,0.24219 0.28515,0.71875 0.48437,1.4375 0.36328,1.3125 0.72266,2.32422 1.07813,3.03125 0.36328,0.75 0.67187,1.25 0.92187,1.5 0.25781,0.25 0.4375,0.41407 0.53125,0.48438 0.0937,0.0742 0.28516,0.10547 0.57813,0.0937 0.28906,-0.008 0.48828,0.0859 0.59375,0.28125 0.14453,0.30469 0.11328,0.625 -0.0937,0.96875 -0.19922,0.34375 -0.46485,0.60156 -0.79688,0.76562 -1.08594,0.54297 -2.12109,-0.30468 -3.10937,-2.54687 z m -2.96875,-4.57813 c -0.58594,0.29297 -1.02344,1.32422 -1.3125,3.09375 -0.29297,1.76172 -0.21094,3.10157 0.25,4.01563 0.23828,0.48047 0.46093,0.67187 0.67187,0.57812 0.67578,-0.34375 1.21094,-1.3789 1.60938,-3.10937 0.39453,-1.72656 0.36328,-3.04688 -0.0937,-3.95313 -0.14844,-0.28906 -0.32813,-0.48828 -0.54688,-0.59375 -0.21875,-0.10156 -0.41406,-0.11328 -0.57812,-0.0312 z m 0,0"
       style="fill:#6a431e;fill-opacity:1;fill-rule:nonzero;stroke:none;stroke-width:1.33333"
       aria-label="a" /><path
       id="path33"
       d="m -472.88647,-22.17034 c -1.19922,2.67969 -2.63281,4.17969 -4.29687,4.5 -0.67969,0.13672 -1.28125,-0.0195 -1.8125,-0.46875 -0.52344,-0.45703 -0.85938,-1.09766 -1.01563,-1.92187 -0.33203,-1.67579 0.0195,-3.47266 1.0625,-5.39063 1.03906,-1.91406 2.26563,-3.00781 3.67188,-3.28125 0.80078,-0.15625 1.41406,-0.0625 1.84375,0.28125 0.0703,-2.1875 0.10156,-3.54687 0.0937,-4.07812 -0.0117,-1.00782 0.0156,-1.6875 0.0781,-2.03125 0.0703,-0.35157 0.22266,-0.64063 0.45313,-0.85938 0.22656,-0.22656 0.4375,-0.35937 0.625,-0.39063 0.32031,-0.0625 0.59375,0.0273 0.8125,0.26563 0.22656,0.23047 0.38281,0.54687 0.46875,0.95313 0.0312,0.17968 -0.008,0.71875 -0.10938,1.625 -0.1875,1.46875 -0.28906,3.21875 -0.29687,5.25 -0.0117,2.03125 0.0937,3.625 0.3125,4.78125 0.21874,1.10546 0.5664,1.60937 1.04687,1.51562 0.25781,-0.0508 0.51563,-0.16406 0.76563,-0.34375 0.25781,-0.1875 0.44531,-0.29687 0.5625,-0.32812 0.30078,-0.0508 0.48828,0.10546 0.5625,0.46875 0.082,0.4375 -0.15235,0.94531 -0.70313,1.51562 -0.54297,0.5625 -1.10156,0.89844 -1.67187,1 -0.61719,0.125 -1.15235,-0.10937 -1.60938,-0.70312 -0.46094,-0.60157 -0.74219,-1.39063 -0.84375,-2.35938 z m -2.03125,-4.70312 c -0.84375,0.16796 -1.59375,0.98046 -2.25,2.4375 -0.65625,1.44921 -0.88281,2.69921 -0.67187,3.75 0.12499,0.625 0.41406,0.89062 0.875,0.79687 0.76953,-0.14453 1.5625,-1.01562 2.375,-2.60937 0.8125,-1.60157 1.14062,-2.80469 0.98437,-3.60938 -0.0547,-0.25 -0.20312,-0.45312 -0.45312,-0.60937 -0.24219,-0.16407 -0.52735,-0.21875 -0.85938,-0.15625 z m 0,0"
       style="fill:#6a431e;fill-opacity:1;fill-rule:nonzero;stroke:none;stroke-width:1.33333"
       aria-label=" d" /><path
       id="path34"
       d="m -457.98803,-23.57659 c 0.0312,0.67968 -0.50781,1.51562 -1.60938,2.51562 -1.09375,0.99219 -2.35546,1.50781 -3.78125,1.5625 -1.10546,0.0508 -1.98437,-0.25781 -2.64062,-0.92187 -0.65625,-0.67578 -1.01172,-1.62891 -1.0625,-2.85938 -0.0859,-1.82031 0.48437,-3.55469 1.70312,-5.20312 1.21875,-1.65625 2.5625,-2.51563 4.03125,-2.57813 0.72657,-0.0195 1.32032,0.19531 1.78125,0.64063 0.45704,0.4375 0.69532,0.97656 0.71875,1.60937 0.0508,1.125 -0.44531,2.22656 -1.48437,3.29688 -1.04297,1.07422 -2.40234,1.84375 -4.07813,2.3125 -0.19921,0.0547 -0.29296,0.17187 -0.28125,0.35937 0.008,0.3125 0.16016,0.60547 0.45313,0.875 0.30078,0.26172 0.67969,0.38281 1.14062,0.35938 1.3125,-0.0508 2.57813,-0.77344 3.79688,-2.17188 0.22656,-0.26953 0.46094,-0.41015 0.70312,-0.42187 0.38282,-0.0195 0.58594,0.1875 0.60938,0.625 z m -6.60938,-1.45313 c 1.00782,-0.25 1.89454,-0.72265 2.65625,-1.42187 0.75782,-0.70703 1.12891,-1.33594 1.10938,-1.89063 -0.0117,-0.20703 -0.0859,-0.3789 -0.21875,-0.51562 -0.125,-0.14453 -0.28125,-0.21094 -0.46875,-0.20313 -0.57422,0.0312 -1.1875,0.47656 -1.84375,1.32813 -0.64844,0.85547 -1.0586,1.75781 -1.23438,2.70312 z m 0,0"
       style="fill:#6a431e;fill-opacity:1;fill-rule:nonzero;stroke:none;stroke-width:1.33333"
       aria-label="e" /><path
       id="path35"
       d="m -435.406,-29.07268 -2.96875,-0.46875 c -1.03125,-0.15625 -1.9336,-0.25391 -2.70313,-0.29688 -0.76172,-0.0391 -1.18359,-0.0312 -1.26562,0.0312 -0.0742,0.0547 -0.15625,0.23438 -0.25,0.54688 -0.0937,0.3125 -0.32813,0.85156 -0.70313,1.60937 -0.28125,0.58594 -0.48047,1.0625 -0.59375,1.4375 0.40625,0.0938 1,0.1836 1.78125,0.26563 0.78125,0.0742 1.33594,0.10547 1.67188,0.0937 0.95703,-0.0195 1.6875,0.0234 2.1875,0.125 1.00781,0.21875 1.45312,0.63281 1.32812,1.23437 -0.0937,0.4375 -0.30469,0.71485 -0.625,0.82813 -0.3125,0.10547 -0.78125,0.125 -1.40625,0.0625 -0.36719,-0.0391 -0.78906,-0.0781 -1.26562,-0.10938 -0.25,-0.008 -0.55469,-0.0352 -0.90625,-0.0781 -1.82422,-0.17578 -2.90625,-0.23828 -3.25,-0.1875 -0.125,0 -0.22657,0.0547 -0.29688,0.15625 -0.0742,0.10547 -0.27344,0.55859 -0.59375,1.35937 -0.32422,0.79297 -0.52344,1.35938 -0.59375,1.70313 -0.0234,0.24218 0.10156,0.38672 0.375,0.4375 0.30078,0.0742 1.11719,0.16797 2.45313,0.28125 1.33203,0.10547 2.16406,0.16406 2.5,0.17187 0.91406,0 1.5039,0.0234 1.76562,0.0781 0.78125,0.28906 1.10156,0.7539 0.96875,1.39062 -0.0625,0.28906 -0.20312,0.49219 -0.42187,0.60938 -0.69922,0.14453 -1.6211,0.13281 -2.76563,-0.0312 -0.88672,-0.13672 -1.96484,-0.26172 -3.23437,-0.375 -1.15625,0.008 -2.22657,-0.0899 -3.20313,-0.29688 -0.52344,-0.11719 -0.875,-0.30859 -1.0625,-0.57812 -0.17969,-0.27344 -0.23437,-0.64063 -0.17187,-1.10938 l 0.0312,-0.34375 c 0,-0.0391 0.0976,-0.21875 0.29687,-0.53125 0.41406,-0.72656 1.09766,-2.39844 2.04688,-5.01562 0.95703,-2.625 1.46875,-4.08594 1.53125,-4.39063 0,-0.008 -0.0156,-0.0391 -0.0469,-0.0937 -0.0312,-0.0508 -0.0781,-0.1875 -0.14062,-0.40625 -0.0625,-0.22656 -0.0742,-0.45703 -0.0312,-0.6875 0.0312,-0.11328 0.0664,-0.19531 0.10937,-0.25 0.0508,-0.13281 0.21094,-0.24219 0.48438,-0.32812 0.28125,-0.082 0.53125,-0.0977 0.75,-0.0469 0.30078,0.0625 0.59765,0.14844 0.89062,0.25 0.53125,0.1172 2.28907,0.29297 5.28125,0.53125 1,0.0859 1.51953,0.13281 1.5625,0.14063 l 0.125,0.0156 c 1.17579,0.17969 1.67579,0.67969 1.50001,1.5 -0.0312,0.14844 -0.17969,0.3125 -0.43751,0.5 -0.26171,0.17969 -0.49609,0.26562 -0.70312,0.26562 z m 0,0"
       style="fill:#6a431e;fill-opacity:1;fill-rule:nonzero;stroke:none;stroke-width:1.33333"
       aria-label=" E" /><path
       id="path36"
       d="m -427.40991,-30.90862 c 0.66405,0.24222 0.86718,0.72656 0.60937,1.45312 -0.11718,0.32422 -0.28906,0.66406 -0.51562,1.01563 -0.23047,0.35546 -0.8125,1.21875 -1.75,2.59375 -0.69922,0.99218 -1.35547,2.10546 -1.96875,3.34375 -0.60547,1.24218 -1.03907,2.22656 -1.29688,2.95312 -0.28125,0.79297 -0.55469,1.74219 -0.8125,2.84375 -0.0742,0.3125 -0.12109,0.5 -0.14062,0.5625 -0.13672,0.375 -0.38672,0.64453 -0.75,0.8125 -0.35547,0.16406 -0.69532,0.19141 -1.01563,0.0781 -0.42969,-0.15625 -0.66406,-0.46875 -0.70312,-0.9375 -0.0312,-0.46875 0.1289,-1.20313 0.48437,-2.20313 0.75782,-2.16406 1.90625,-4.61719 3.4375,-7.35937 1.53906,-2.75 2.5625,-4.32813 3.0625,-4.73438 0.50781,-0.41406 0.96094,-0.55469 1.35938,-0.42187 z m 0,0"
       style="fill:#6a431e;fill-opacity:1;fill-rule:nonzero;stroke:none;stroke-width:1.33333"
       aria-label="l" /><path
       id="path37"
       d="m -421.89428,-14.00237 c -0.29297,0.61328 -1.15625,1.09766 -2.59375,1.45312 -1.42969,0.35157 -2.78906,0.22266 -4.07813,-0.39062 -0.99218,-0.46875 -1.625,-1.15625 -1.90625,-2.0625 -0.27343,-0.90625 -0.14062,-1.91016 0.39063,-3.01563 0.78906,-1.64453 2.10937,-2.91015 3.95312,-3.79687 1.85157,-0.88281 3.44141,-1.00781 4.76563,-0.375 0.66406,0.3125 1.09765,0.77734 1.29687,1.39062 0.19532,0.60547 0.16016,1.19532 -0.10937,1.76563 -0.49219,1.03125 -1.44922,1.77344 -2.875,2.21875 -1.41797,0.44922 -2.98047,0.48437 -4.6875,0.10937 -0.19922,-0.0391 -0.33985,0.0234 -0.42188,0.1875 -0.13671,0.28126 -0.14062,0.60938 -0.0156,0.98438 0.13281,0.375 0.41015,0.66016 0.82812,0.85937 1.1875,0.57032 2.64453,0.53125 4.375,-0.125 0.34375,-0.13671 0.625,-0.15234 0.84375,-0.0469 0.34375,0.16406 0.42188,0.44531 0.23438,0.84375 z m -5.15625,-4.39063 c 1.00781,0.25 2.01562,0.2461 3.01562,-0.0156 1,-0.25781 1.61719,-0.63281 1.85938,-1.125 0.0937,-0.19531 0.11328,-0.39063 0.0625,-0.57813 -0.043,-0.1875 -0.14844,-0.32031 -0.3125,-0.40625 -0.52344,-0.25 -1.27344,-0.14453 -2.25,0.3125 -0.98047,0.46094 -1.77344,1.0625 -2.375,1.8125 z m 0,0"
       style="fill:#6a431e;fill-opacity:1;fill-rule:nonzero;stroke:none;stroke-width:1.33333"
       aria-label="e" /><path
       id="path38"
       d="m -417.42554,-13.02971 -1.07812,1.375 c -0.34375,0.4375 -0.66407,0.89062 -0.95313,1.35937 -0.27344,0.4062495 -0.54297,0.9101595 -0.8125,1.5156295 -0.17969,0.16406 -0.42187,0.24218 -0.73437,0.23437 -0.30469,0 -0.57813,-0.0781 -0.82813,-0.23437 -0.74219,-0.48047 -0.80469,-1.19922 -0.1875,-2.1562495 0.26953,-0.41407 1.02344,-1.34766 2.26563,-2.79688 0.89453,-1.03125 1.52343,-1.82812 1.89062,-2.39062 0.0195,-0.0391 0.008,-0.10157 -0.0312,-0.1875 -0.23047,-0.47657 -0.27734,-0.82813 -0.14062,-1.04688 0.1875,-0.28906 0.60156,-0.46875 1.25,-0.53125 0.28906,-0.0312 0.53125,-0.13281 0.71875,-0.3125 0.1875,-0.17578 0.46875,-0.46875 0.84375,-0.875 1.40625,-1.5625 2.65625,-2.51563 3.75,-2.85938 1.10156,-0.34375 2.13281,-0.20703 3.09375,0.40625 0.55076,0.3555 0.90625,0.83985 1.0625,1.45313 0.15625,0.61719 0.0625,1.19531 -0.28125,1.73437 -0.3125,0.48048 -0.7461,0.91407 -1.29688,1.29688 -0.54297,0.375 -0.99609,0.44922 -1.35937,0.21875 -0.16797,-0.11328 -0.27735,-0.25391 -0.32813,-0.42187 -0.043,-0.17579 -0.0117,-0.34766 0.0937,-0.51563 l 0.5,-0.67188 c 0.55078,-0.86328 0.64844,-1.40624 0.29688,-1.62499 -0.44924,-0.28905 -1.22657,0 -2.32813,0.875 -1.09375,0.875 -1.89062,1.70312 -2.39062,2.48437 -0.0547,0.0859 -0.0274,0.15625 0.0781,0.21875 1.13282,0.73047 1.93751,1.24218 2.40625,1.53125 0.47656,0.28125 0.60156,0.60938 0.375,0.98438 -0.24218,0.36718 -0.69922,0.45312 -1.375,0.26562 -0.66797,-0.1875 -1.32031,-0.48437 -1.95312,-0.89062 -0.44922,-0.23829 -0.74219,-0.375 -0.875,-0.40625 -0.65625,0.73046 -1.21485,1.38281 -1.67188,1.95312 z m 0,0"
       style="fill:#6a431e;fill-opacity:1;fill-rule:nonzero;stroke:none;stroke-width:1.33333"
       aria-label="f" /><path
       id="path39"
       d="m -409.24194,-4.7406505 c -2.77344,0.625 -4.76563,0.42187 -5.98438,-0.60938 -0.44921,-0.375 -0.68359,-0.88281 -0.70312,-1.51562 -0.0234,-0.625 0.20312,-1.21094 0.67187,-1.76563 1.11329,-1.3125 2.88282,-2.2109295 5.3125,-2.7031195 2.42579,-0.5 4.23829,-0.24219 5.4375,0.76562 0.60156,0.51173 0.74219,1.1523495 0.42188,1.9218795 0.57031,0.49218 0.67187,0.95312 0.29687,1.39062 -0.17968,0.20703 -0.55468,0.53516 -1.125,0.98438 -1.0625,0.85156 -1.85546,1.58203 -2.375,2.1875 -0.53124,0.63281 -0.86718,1.11719 -1,1.45312 -0.125,0.34375 -0.20312,0.56641 -0.23437,0.67188 -0.0234,0.11328 0.0234,0.30078 0.14062,0.5625 0.125,0.25781 0.11329,0.47265 -0.0312,0.64062 -0.21875,0.25782 -0.53125,0.36328 -0.9375,0.3125 -0.39843,-0.0547 -0.73437,-0.19531 -1.01562,-0.42187 -0.92969,-0.79297 -0.55469,-2.08594 1.125,-3.875 z m 3.04687,-4.53125 c -0.5,-0.41406 -1.62109,-0.41016 -3.35937,0.0156 -1.74219,0.42969 -2.9375,1.03125 -3.59375,1.8125 -0.34375,0.40625 -0.42969,0.6875 -0.25,0.84375 0.57031,0.48828 1.72656,0.57032 3.46875,0.25 1.73828,-0.3125 2.9375,-0.85937 3.59375,-1.64062 0.20703,-0.23828 0.31641,-0.47656 0.32812,-0.71875 0.0195,-0.25 -0.043,-0.4375 -0.1875,-0.5625 z m 0,0"
       style="fill:#6a431e;fill-opacity:1;fill-rule:nonzero;stroke:none;stroke-width:1.33333"
       aria-label="a" /><path
       id="path40"
       d="m -401.72241,6.1030995 c 0.25781,-0.625 0.96093,-1.4961 2.10937,-2.60938 1.1875,-1.17968 1.62891,-1.96093 1.32813,-2.34375 -0.30469,-0.35547 -1.49219,-0.42968 -3.5625,-0.21875 -2.07422,0.20703 -3.51172,0.47266 -4.3125,0.79688 -0.24219,0.10156 -0.47657,0.14453 -0.70313,0.125 -0.21875,-0.0117 -0.375,-0.0781 -0.46875,-0.20313 -0.625,-0.76172 -0.58594,-1.42968 0.125,-2 0.22656,-0.19531 0.81641,-0.5664 1.76563,-1.10937 1.25781,-0.6875 2.67187,-1.67578 4.23437,-2.96875 0.25,-0.19531 0.58594,-0.30078 1.01563,-0.3125 0.4375,-0.0195 0.7539,0.0859 0.95312,0.3125 0.23829,0.29296 0.34766,0.57812 0.32813,0.85937 -0.0234,0.28125 -0.34375,0.67969 -0.96875,1.1875 -0.48048,0.39844 -1.52735,1.01172 -3.14063,1.84375 3.46875,-1.00781 5.75391,-0.84375 6.85938,0.5 0.95703,1.16407 0.59765,2.60938 -1.07813,4.32813 -1.71875,1.73828 -2.46875,2.73828 -2.25,3 0.0937,0.11328 0.22656,0.22265 0.40625,0.32812 0.20703,0.13281 0.35938,0.25391 0.45313,0.35938 0.19531,0.23828 0.15625,0.47265 -0.125,0.70312 -0.26172,0.21876 -0.67188,0.27344 -1.23438,0.17188 -0.5625,-0.0937 -1.04687,-0.39063 -1.45312,-0.89063 -0.49219,-0.58593 -0.58594,-1.21093 -0.28125,-1.875 z m 0,0"
       style="fill:#6a431e;fill-opacity:1;fill-rule:nonzero;stroke:none;stroke-width:1.33333"
       aria-label="n" /><path
       id="path41"
       d="m -391.36694,10.1695 c -0.0312,-0.0547 -0.75781,0.14063 -2.17187,0.57813 -1.41797,0.44531 -2.26172,0.75 -2.53125,0.90625 -0.46094,0.25781 -0.75782,0.48828 -0.89063,0.6875 -0.125,0.20703 -0.12109,0.42578 0.0156,0.65625 0.17578,0.32031 0.39843,0.59375 0.67187,0.8125 0.26953,0.22656 0.72656,0.46875 1.375,0.71875 0.41406,0.16406 0.67969,0.34765 0.79688,0.54687 0.0937,0.17578 0.125,0.33594 0.0937,0.48438 -0.0312,0.14453 -0.11719,0.2539 -0.25,0.32812 -0.5,0.28125 -1.29297,0.19531 -2.375,-0.25 -1.08594,-0.4375 -1.88282,-1.10547 -2.39063,-2 -0.41797,-0.74219 -0.51562,-1.43359 -0.29687,-2.07812 0.21875,-0.64844 0.73828,-1.20313 1.5625,-1.6718805 0.76953,-0.4375 2.45703,-1.01562 5.0625,-1.73437 -0.24219,-0.34375 -0.40235,-0.58594 -0.48438,-0.73438 l -0.0937,-0.17187 c -0.15625,-0.26954 -0.23047,-0.58204 -0.21875,-0.9375 0.0195,-0.36329 0.22266,-0.65625 0.60938,-0.875 0.46875,-0.26954 0.85156,-0.14063 1.15625,0.39062 l 1.09375,1.79688 c 0.82031,-0.15625 1.86718,-0.41016 3.14062,-0.76563 0.76953,-0.22656 1.31641,-0.0625 1.64063,0.5 0.17578,0.3125 0.21875,0.60938 0.125,0.89063 -0.0859,0.27343 -0.2461,0.47656 -0.48438,0.60937 -0.0859,0.0547 -1.08984,0.30859 -3.01562,0.76563 1.16406,1.7187505 1.79687,2.6640605 1.89062,2.8437505 0.16406,0.28906 0.23438,0.50781 0.20313,0.65625 -0.0234,0.15625 -0.16407,0.30468 -0.42188,0.45312 -0.49219,0.28125 -1.05469,0.0234 -1.6875,-0.76562 z m 0,0"
       style="fill:#6a431e;fill-opacity:1;fill-rule:nonzero;stroke:none;stroke-width:1.33333"
       aria-label="t" /><path
       id="path42"
       d="m -389.78101,25.31403 c -0.625,0.22656 -1.58593,-0.0274 -2.875,-0.76563 -1.28125,-0.73047 -2.17187,-1.76172 -2.67187,-3.09375 -0.38672,-1.04297 -0.36719,-1.98047 0.0625,-2.8125 0.42578,-0.83593 1.21875,-1.46093 2.375,-1.89062 1.70703,-0.64453 3.53515,-0.64453 5.48437,0 1.94532,0.64453 3.17578,1.65625 3.6875,3.03125 0.25782,0.6875 0.25,1.3164 -0.0312,1.89062 -0.27343,0.58203 -0.70312,0.98438 -1.29687,1.20313 -1.0625,0.40625 -2.27344,0.27344 -3.625,-0.39063 -1.34375,-0.65625 -2.4961,-1.71484 -3.45313,-3.17187 -0.10547,-0.17969 -0.24609,-0.23047 -0.42187,-0.15625 -0.29297,0.10156 -0.52344,0.33594 -0.6875,0.70312 -0.16797,0.36328 -0.17188,0.75782 -0.0156,1.1875 0.45704,1.22656 1.53907,2.20703 3.25,2.9375 0.34375,0.14453 0.55469,0.32813 0.64063,0.54688 0.13282,0.36328 -0.008,0.625 -0.42188,0.78125 z m -0.67187,-6.73438 c 0.55078,0.875 1.27344,1.5625 2.17187,2.0625 0.90625,0.50782 1.61719,0.66407 2.14063,0.46875 0.19531,-0.0742 0.34375,-0.19531 0.4375,-0.35937 0.10156,-0.16797 0.125,-0.33985 0.0625,-0.51563 -0.21094,-0.53125 -0.82422,-0.97656 -1.84375,-1.32812 -1.02344,-0.35547 -2.01172,-0.46485 -2.96875,-0.32813 z m 0,0"
       style="fill:#6a431e;fill-opacity:1;fill-rule:nonzero;stroke:none;stroke-width:1.33333"
       aria-label="e" /><path
       id="path43"
       d="m -389.36694,31.57967 c 0.33203,-0.0937 0.63281,-0.72656 0.90625,-1.89062 0.36328,-1.44922 0.73828,-2.40235 1.125,-2.85938 0.38281,-0.44531 0.84375,-0.72656 1.375,-0.84375 1.13281,-0.22656 2.25,0.19922 3.34375,1.28125 1.10156,1.09375 1.76953,2.17969 2,3.26563 0.21875,1.08203 -0.14063,1.72265 -1.07813,1.92187 -0.25,0.0508 -0.5,-0.0273 -0.75,-0.23437 -0.25,-0.19922 -0.39062,-0.38282 -0.42187,-0.54688 -0.0234,-0.0742 0,-0.21484 0.0625,-0.42187 0.0508,-0.19922 0.0703,-0.33985 0.0625,-0.42188 -0.12501,-0.57422 -0.45313,-1.16406 -0.98438,-1.76562 -0.52344,-0.60547 -1.03125,-0.85547 -1.53125,-0.75 -0.26172,0.0508 -0.48047,0.22265 -0.65625,0.51562 -0.17969,0.28906 -0.36719,0.84375 -0.5625,1.65625 -0.30469,1.21875 -0.63281,2.03906 -0.98437,2.46875 -0.34375,0.4375 -0.77344,0.70703 -1.28125,0.8125 -0.9375,0.19532 -1.85157,-0.26562 -2.73438,-1.39062 -0.875,-1.125 -1.47656,-2.47657 -1.79687,-4.04688 -0.23829,-1.15625 0.0586,-1.82422 0.89062,-2 0.3125,-0.0625 0.60156,0 0.875,0.1875 0.26953,0.19531 0.4375,0.44531 0.5,0.75 0.0195,0.125 0.008,0.32813 -0.0312,0.60938 -0.0312,0.26953 -0.0273,0.51562 0.0156,0.73437 0.125,0.60156 0.34765,1.21094 0.67187,1.82813 0.32031,0.61328 0.64844,0.99218 0.98438,1.14062 z m 0,0"
       style="fill:#6a431e;fill-opacity:1;fill-rule:nonzero;stroke:none;stroke-width:1.33333"
       aria-label="s" /><path
       id="path44"
       d="m 0,0 c 1.247,-0.162 2.499,-0.285 3.751,-0.366 1.25,-0.082 2.515,-0.134 3.747,-0.006 2.457,0.384 4.9,1.097 7.05,2.324 0.521,0.253 1.021,0.707 1.532,1.05 0.514,0.367 0.873,0.851 1.317,1.265 l 0.16,0.16 0.04,0.041 c -0.019,-0.026 0.013,0.021 0.018,0.028 l 0.067,0.097 0.264,0.389 0.532,0.78 c 0.338,0.525 0.522,1.092 0.794,1.631 0.919,2.321 1.137,4.771 1.544,7.286 0.196,1.236 0.458,2.527 0.916,3.744 0.451,1.223 1.155,2.408 2.131,3.333 1.948,1.858 4.608,2.735 7.175,2.924 1.399,0.06 2.707,-0.183 3.962,-0.692 0.621,-0.256 1.224,-0.568 1.771,-0.962 l 0.414,-0.291 0.382,-0.341 0.703,-0.629 c 1.919,-1.884 3.206,-4.22 4.134,-6.576 0.215,-0.616 0.45,-1.232 0.645,-1.851 0.169,-0.62 0.367,-1.235 0.512,-1.86 0.132,-0.637 0.3,-1.229 0.402,-1.903 0.089,-0.63 0.225,-1.221 0.273,-1.884 0.145,-1.301 0.222,-2.594 0.153,-3.899 L 44.336,2.814 C 44.312,2.439 44.261,2.173 44.225,1.847 l -0.239,-1.87 c -0.137,-1.243 -0.442,-2.52 -0.657,-3.779 -0.269,-1.253 -0.638,-2.475 -0.953,-3.715 -0.381,-1.215 -0.803,-2.416 -1.202,-3.624 -0.466,-1.261 -0.922,-2.344 -1.547,-3.536 -1.182,-2.318 -2.505,-4.465 -3.915,-6.58 -1.393,-2.119 -2.87,-4.172 -4.373,-6.204 -3.023,-4.054 -6.163,-7.992 -9.451,-11.843 l 0.223,0.493 -1.642,-12.067 -0.117,-0.865 -0.877,0.018 -8.868,0.18 -0.583,0.012 -0.27,0.509 c -0.586,1.106 -1.13,2.232 -1.63,3.365 -0.503,1.128 -0.955,2.276 -1.466,3.305 -0.514,1.037 -1.097,1.885 -1.923,2.287 -0.422,0.201 -0.898,0.346 -1.435,0.398 l -0.4,0.045 -0.416,0.012 c -0.298,0.003 -0.625,0.027 -0.9,0.012 l -0.805,-0.05 -0.8,-0.132 c -0.262,-0.056 -0.503,-0.148 -0.758,-0.216 -0.239,-0.095 -0.465,-0.21 -0.697,-0.315 -0.429,-0.266 -0.84,-0.563 -1.191,-0.959 -0.357,-0.384 -0.682,-0.827 -0.968,-1.318 -0.299,-0.476 -0.56,-1.003 -0.817,-1.536 -0.258,-0.531 -0.501,-1.085 -0.746,-1.637 -0.484,-1.112 -0.976,-2.243 -1.489,-3.365 l -0.25,-0.547 -0.599,0.011 -7.907,0.141 -0.625,0.011 -0.195,0.554 -1.047,2.976 -0.52,1.488 -0.412,1.521 -0.825,3.062 c -0.2,1.024 -0.45,2.005 -0.599,3.073 -0.389,2.104 -0.525,4.194 -0.557,6.36 0.03,2.083 0.273,4.312 1.084,6.374 0.192,0.519 0.454,1.021 0.726,1.509 0.294,0.475 0.62,0.971 0.933,1.358 0.602,0.817 1.326,1.684 2.07,2.445 1.498,1.577 3.372,2.765 5.281,3.679 1.915,0.932 3.898,1.612 5.874,2.284 1.983,0.651 3.974,1.25 5.972,1.818 3.994,1.143 8.001,2.21 12.009,3.273 1.012,0.281 1.994,0.498 2.978,0.817 0.915,0.309 1.852,0.761 2.737,1.246 1.787,0.977 3.455,2.189 5.04,3.49 1.574,1.32 3.066,2.746 4.426,4.289 1.353,1.547 2.616,3.186 3.649,4.965 1.042,1.77 1.878,3.677 2.286,5.695 0.191,1.009 0.248,2.045 0.139,3.069 -0.048,0.514 -0.168,1.015 -0.306,1.514 -0.078,0.245 -0.182,0.483 -0.272,0.725 -0.07,0.203 -0.289,0.67 -0.096,0.224 l -0.08,0.177 c -0.052,0.108 0.021,0.026 0.04,-0.036 0.061,-0.115 0.11,-0.234 0.161,-0.354 0.098,-0.24 0.211,-0.475 0.298,-0.72 0.156,-0.496 0.295,-0.998 0.363,-1.516 0.145,-1.032 0.125,-2.087 -0.034,-3.12 C 34.718,8.659 33.918,6.692 32.904,4.871 31.902,3.036 30.665,1.343 29.333,-0.263 27.993,-1.865 26.518,-3.35 24.951,-4.735 23.37,-6.103 21.702,-7.383 19.877,-8.444 c -0.919,-0.531 -1.841,-1.015 -2.881,-1.397 -0.978,-0.349 -2.019,-0.601 -2.999,-0.888 -3.988,-1.125 -7.976,-2.255 -11.933,-3.456 -1.98,-0.597 -3.948,-1.224 -5.894,-1.896 -1.933,-0.692 -3.871,-1.393 -5.672,-2.307 -1.806,-0.904 -3.473,-2.001 -4.816,-3.46 -0.689,-0.734 -1.29,-1.467 -1.906,-2.328 -0.632,-0.817 -1.055,-1.595 -1.406,-2.511 -0.682,-1.822 -0.869,-3.785 -0.896,-5.833 0.043,-1.975 0.182,-4.035 0.561,-6.007 0.139,-0.986 0.404,-2.017 0.607,-3.025 l 0.81,-2.937 0.407,-1.477 0.514,-1.443 1.031,-2.885 -0.82,0.565 7.908,-0.099 -0.848,-0.535 c 0.496,1.1 0.973,2.212 1.457,3.341 0.248,0.565 0.491,1.131 0.764,1.7 0.271,0.567 0.549,1.139 0.895,1.699 0.326,0.563 0.719,1.12 1.191,1.63 0.46,0.521 1.035,0.961 1.646,1.332 0.318,0.155 0.64,0.315 0.967,0.444 0.333,0.099 0.667,0.218 1.001,0.293 0.335,0.058 0.669,0.122 1.005,0.17 l 1.023,0.066 c 0.334,0.016 0.618,-0.005 0.93,-0.007 l 0.499,-0.013 0.511,-0.054 c 0.678,-0.064 1.395,-0.254 2.071,-0.58 0.69,-0.326 1.263,-0.86 1.723,-1.409 0.449,-0.562 0.778,-1.15 1.073,-1.727 0.58,-1.156 1.025,-2.283 1.524,-3.381 0.492,-1.099 1.017,-2.168 1.579,-3.218 l -0.853,0.52 8.868,-0.204 -0.995,-0.847 1.706,12.058 0.039,0.279 0.184,0.215 c 3.263,3.78 6.417,7.692 9.427,11.686 1.497,2.003 2.969,4.026 4.349,6.102 1.391,2.059 2.716,4.199 3.831,6.354 0.558,1.027 1.086,2.265 1.493,3.359 0.394,1.177 0.813,2.347 1.19,3.528 0.311,1.195 0.672,2.384 0.944,3.585 0.224,1.215 0.533,2.384 0.693,3.64 l 0.267,1.866 c 0.038,0.299 0.104,0.652 0.119,0.905 l 0.062,0.904 c 0.085,1.204 0.029,2.433 -0.083,3.629 -0.029,0.593 -0.163,1.236 -0.239,1.852 -0.074,0.571 -0.236,1.196 -0.351,1.792 -0.13,0.601 -0.308,1.187 -0.461,1.782 -0.172,0.584 -0.379,1.145 -0.565,1.72 -0.864,2.324 -2.064,4.499 -3.71,6.178 l -0.691,0.64 -0.315,0.293 -0.354,0.255 c -0.467,0.35 -0.987,0.628 -1.523,0.859 -1.061,0.461 -2.281,0.689 -3.397,0.663 -2.414,-0.136 -4.828,-0.92 -6.567,-2.529 -1.747,-1.6 -2.476,-4.048 -2.912,-6.477 l -0.68,-3.717 C 20.825,10.188 20.7,9.548 20.521,8.94 20.304,8.338 20.16,7.762 19.883,7.139 19.58,6.562 19.336,5.93 18.979,5.409 L 18.429,4.644 18.153,4.262 18.084,4.166 18.033,4.098 17.989,4.056 17.813,3.885 C 17.333,3.452 16.899,2.932 16.379,2.581 15.84,2.239 15.392,1.837 14.777,1.544 12.521,0.341 10.032,-0.332 7.524,-0.631 6.252,-0.718 4.993,-0.621 3.741,-0.496 2.488,-0.371 1.241,-0.205 0,0"
       style="fill:#5c381b;fill-opacity:1;fill-rule:nonzero;stroke:none"
       transform="matrix(1.3333333,0,0,-1.3333333,-462.10393,76.10835)"
       clip-path="url(#clipPath45)" /><path
       id="path46"
       d="m 0,0 c 0,-1.081 0.836,-1.957 1.869,-1.957 1.031,-10e-4 1.869,0.875 1.869,1.956 0,1.08 -0.836,1.957 -1.869,1.957 C 0.836,1.956 0,1.08 0,0 Z"
       style="fill:none;stroke:#5c381b;stroke-width:0.75;stroke-linecap:butt;stroke-linejoin:miter;stroke-miterlimit:10;stroke-dasharray:none;stroke-opacity:1"
       transform="matrix(1.3333333,0,0,-1.3333333,-452.4034,110.82448)"
       clip-path="url(#clipPath47)" /><path
       id="path48"
       d="m 0,0 c 0,0 0.431,-0.674 1.121,-1.586 0.352,-0.449 0.776,-0.961 1.286,-1.379 0.252,-0.213 0.539,-0.368 0.816,-0.476 0.141,-0.043 0.281,-0.079 0.421,-0.08 0.064,-0.002 0.15,0.006 0.196,0.01 l 0.289,0.042 c 0.294,0.052 0.598,0.161 0.831,0.341 0.239,0.179 0.456,0.423 0.639,0.702 C 5.97,-1.868 6.26,-1.25 6.524,-0.733 7.036,0.315 7.446,1 7.446,1 7.446,1 7.351,0.211 7.056,-0.932 6.981,-1.219 6.896,-1.53 6.783,-1.854 6.663,-2.179 6.548,-2.529 6.35,-2.876 6.158,-3.22 5.92,-3.594 5.552,-3.888 5.182,-4.185 4.74,-4.367 4.27,-4.457 L 3.98,-4.495 C 3.833,-4.509 3.724,-4.512 3.595,-4.504 3.345,-4.492 3.109,-4.427 2.887,-4.348 2.449,-4.178 2.101,-3.903 1.815,-3.623 1.245,-3.055 0.887,-2.431 0.627,-1.888 0.11,-0.796 0,0 0,0"
       style="fill:#5c381b;fill-opacity:1;fill-rule:nonzero;stroke:none"
       transform="matrix(1.3333333,0,0,-1.3333333,-497.21526,123.01714)"
       clip-path="url(#clipPath49)" /><path
       id="path50"
       d="m 0,0 c -0.223,-1.751 -0.336,-3.514 -0.23,-5.258 0.069,-1.733 0.365,-3.488 1.116,-4.984 0.212,-0.358 0.41,-0.723 0.687,-1.022 0.225,-0.327 0.56,-0.589 0.883,-0.909 0.328,-0.245 0.631,-0.508 1,-0.718 0.346,-0.233 0.728,-0.406 1.106,-0.577 0.762,-0.334 1.579,-0.547 2.41,-0.64 0.416,-0.042 0.835,-0.071 1.253,-0.055 0.41,0.011 0.849,0.049 1.216,0.117 l -0.314,-0.225 c 0.182,0.312 0.367,0.68 0.519,1.039 0.158,0.361 0.291,0.733 0.414,1.108 0.115,0.378 0.216,0.759 0.293,1.145 0.067,0.386 0.144,0.773 0.165,1.163 0.046,0.39 0.03,0.78 0.024,1.17 -0.035,0.388 -0.064,0.777 -0.158,1.155 -0.056,0.387 -0.211,0.745 -0.314,1.122 l -0.236,0.535 -0.109,0.25 -0.158,0.266 c -0.203,0.374 -0.436,0.654 -0.67,0.97 -0.26,0.301 -0.518,0.607 -0.81,0.886 -0.566,0.573 -1.19,1.097 -1.832,1.598 -1.274,1.024 -2.662,1.908 -4.08,2.747 1.519,-0.646 2.969,-1.451 4.359,-2.362 0.693,-0.46 1.353,-0.974 1.978,-1.535 0.319,-0.275 0.61,-0.582 0.904,-0.889 0.277,-0.328 0.581,-0.678 0.788,-1.018 l 0.171,-0.257 c 0.075,-0.128 0.105,-0.201 0.16,-0.305 l 0.292,-0.58 c 0.144,-0.408 0.324,-0.81 0.4,-1.238 0.115,-0.421 0.162,-0.852 0.211,-1.283 0.02,-0.432 0.047,-0.867 0.01,-1.296 -0.045,-0.863 -0.21,-1.713 -0.46,-2.532 -0.13,-0.408 -0.271,-0.812 -0.439,-1.207 -0.167,-0.399 -0.345,-0.772 -0.575,-1.173 l -0.105,-0.182 -0.21,-0.042 c -0.499,-0.101 -0.943,-0.132 -1.414,-0.141 -0.464,-0.012 -0.928,0.023 -1.389,0.074 -0.92,0.112 -1.829,0.356 -2.679,0.738 -0.42,0.199 -0.839,0.409 -1.219,0.678 -0.394,0.239 -0.756,0.56 -1.121,0.86 -0.294,0.31 -0.654,0.608 -0.929,1.014 -0.313,0.365 -0.511,0.793 -0.727,1.207 -0.743,1.71 -0.933,3.542 -0.913,5.32 C -0.669,-3.482 -0.452,-1.711 0,0"
       style="fill:#5c381b;fill-opacity:1;fill-rule:nonzero;stroke:none"
       transform="matrix(1.3333333,0,0,-1.3333333,-467.449,106.92409)"
       clip-path="url(#clipPath51)" /><path
       id="path52"
       d="M 0,0 4.141,0.097 C 6.777,0.141 10.542,0.205 15.059,0.28 19.577,0.325 24.848,0.377 30.495,0.433 36.142,0.454 42.166,0.477 48.189,0.5 54.213,0.477 60.237,0.455 65.884,0.434 71.531,0.417 76.802,0.322 81.319,0.281 85.838,0.205 89.603,0.142 92.237,0.097 94.873,0.035 96.379,0 96.379,0 c 0,0 -1.506,-0.035 -4.142,-0.097 C 89.603,-0.142 85.838,-0.205 81.319,-0.281 76.802,-0.322 71.531,-0.417 65.884,-0.434 60.237,-0.455 54.213,-0.477 48.189,-0.5 42.166,-0.477 36.142,-0.454 30.495,-0.433 24.848,-0.377 19.577,-0.325 15.059,-0.28 10.542,-0.205 6.777,-0.141 4.141,-0.097 Z"
       style="fill:#18af80;fill-opacity:1;fill-rule:nonzero;stroke:none"
       transform="matrix(1.3333333,0,0,-1.3333333,-524.92166,146.44421)"
       clip-path="url(#clipPath53)" /><path
       id="path54"
       d="m -418.64819,143.95857 c -1.63672,0 -3.02734,-0.56641 -4.17188,-1.70313 -1.13671,-1.14453 -1.70312,-2.52344 -1.70312,-4.14062 0,-1.63282 0.57031,-3.01953 1.71875,-4.15625 1.15625,-1.14453 2.53516,-1.71875 4.14062,-1.71875 1.61329,0 2.99219,0.57422 4.14063,1.71875 1.15625,1.14843 1.73437,2.52343 1.73437,4.125 0,1.625 -0.57422,3.01172 -1.71875,4.15625 -1.13671,1.14843 -2.51562,1.71875 -4.14062,1.71875 z m -0.0469,-11.04688 c -1.40625,0 -2.61718,0.51172 -3.625,1.53125 -1,1.01172 -1.5,2.23438 -1.5,3.67188 0,1.41797 0.5,2.63672 1.5,3.65625 1,1.01172 2.20704,1.51562 3.625,1.51562 1.4375,0 2.66016,-0.5039 3.67188,-1.51562 1.01953,-1.01953 1.53125,-2.23828 1.53125,-3.65625 0,-1.4375 -0.51172,-2.66016 -1.53125,-3.67188 -1.02344,-1.01953 -2.24609,-1.53125 -3.67188,-1.53125 z m 1.89063,8.82813 -0.89063,-1.92188 c -0.26171,-0.5625 -0.51562,-0.9375 -0.76562,-1.125 -0.24219,-0.19531 -0.51172,-0.29687 -0.8125,-0.29687 h -0.75 v 3.34375 h -0.8125 v -7.54688 h 2.0625 c 0.83203,0 1.47266,0.1836 1.92187,0.54688 0.44532,0.36718 0.67188,0.84375 0.67188,1.4375 0,1.15625 -0.65625,1.85547 -1.96875,2.09375 v 0.0312 c 0.44531,0.0859 0.86328,0.53906 1.25,1.35937 l 1,2.07813 z m -3.21875,-6.92188 v 2.95313 h 1.34375 c 0.50781,0 0.91406,-0.12891 1.21875,-0.39063 0.3125,-0.25781 0.46875,-0.61719 0.46875,-1.07812 0,-0.98828 -0.62109,-1.48438 -1.85938,-1.48438 z m 0,0"
       style="fill:#231f20;fill-opacity:1;fill-rule:nonzero;stroke:none;stroke-width:1.33333"
       aria-label="" /></g></svg>
